<?xml version="1.0" standalone="no"?>
<!DOCTYPE svg PUBLIC "-//W3C//DTD SVG 20010904//EN"
 "http://www.w3.org/TR/2001/REC-SVG-20010904/DTD/svg10.dtd">
<svg version="1.0" xmlns="http://www.w3.org/2000/svg"
 width="1280.000000pt" height="1278.000000pt" viewBox="0 0 1280.000000 1278.000000"
 preserveAspectRatio="xMidYMid meet">
<g transform="translate(0.000000,1278.000000) scale(0.100000,-0.100000)"
fill="#ff0000" stroke="none">
<path d="M1457 12589 c-655 -58 -1178 -562 -1257 -1211 -8 -68 -10 -1425 -8
-5028 l3 -4935 23 -108 c123 -579 549 -994 1122 -1094 101 -17 309 -18 5060
-18 4751 0 4959 1 5060 18 585 102 1025 542 1127 1127 17 101 18 309 18 5050
0 4741 -1 4949 -18 5050 -87 500 -424 901 -898 1068 -120 42 -253 69 -403 82
-153 12 -9689 12 -9829 -1z m9893 -592 c94 -26 256 -108 321 -164 128 -111
215 -244 266 -408 l28 -90 0 -4915 0 -4915 -28 -88 c-50 -162 -114 -265 -236
-379 -92 -86 -210 -153 -337 -190 l-79 -23 -4925 0 -4925 0 -92 31 c-304 104
-514 344 -562 645 -8 44 -11 1611 -11 4921 0 5233 -3 4912 49 5062 75 214 258
399 476 481 150 57 -189 53 5105 51 4633 -1 4888 -2 4950 -19z"/>
</g>
</svg>
